<svg width="1366" height="227" viewBox="0 0 1366 227" fill="none" xmlns="http://www.w3.org/2000/svg">
<path d="M260.5 138.5C244.5 183.7 271.667 213.333 290.5 225.5H0.500011V113.5L0.5 6.6672C5.01548 5.47763 9.84248 4.57621 15 3.99995C86.6 -4.00005 145.5 31.6666 166 50.5C204.167 61 276.5 93.3 260.5 138.5Z" fill="#FFD8D4"/>
<path d="M48.4467 122.246C14.4841 139.879 1.9978 188.998 0 211.353V229H1366V54C1364.58 34.2824 1360.27 25.4227 1340 17.5C1315.53 8.43294 1271.9 2.18526 1225.15 2.18526C1166.72 2.18526 1140.25 12.972 1099.29 12.972C1058.34 12.972 948.456 12.972 900.01 2.18526C851.563 -8.60144 665.767 23.7586 636.799 29.3864C607.831 35.0143 522.425 29.3865 447.008 12.972C371.591 -3.44254 271.202 7.81312 228.249 12.972C185.296 18.1308 172.31 38.7662 137.349 65.9673C102.387 93.1685 90.9 100.203 48.4467 122.246Z" fill="#FFB1A3"/>
</svg>
