<?xml version="1.0" encoding="utf-8"?>
<!-- Generator: Adobe Illustrator 24.0.1, SVG Export Plug-In . SVG Version: 6.00 Build 0)  -->
<svg version="1.1" id="Camada_1" xmlns="http://www.w3.org/2000/svg" xmlns:xlink="http://www.w3.org/1999/xlink" x="0px" y="0px"
	 viewBox="0 0 209 27" style="enable-background:new 0 0 209 27; background: transparent;" xml:space="preserve">
<g>
	<path d="M38.48,36.83c-2.53,2-5.48,3-8.84,3c-0.56,0-1.16-0.04-1.8-0.12c-4.11-0.51-7.72-1.47-10.84-2.88c-2.48,2-5.21,3-8.2,3
		c-0.53,0-1.13-0.04-1.8-0.12c-1.28-0.16-2.36-0.55-3.24-1.16c-1.09-0.72-1.64-1.67-1.64-2.84c0-1.23,0.56-2.21,1.68-2.96
		c0.96-0.64,2.08-0.96,3.36-0.96c1.39,0,3.04,0.41,4.96,1.24c0.69,0.32,2.21,1.11,4.56,2.36c2.05-1.97,4.55-5.74,7.48-11.3
		c3.15-5.96,5.72-10.06,7.72-12.3c-2.99-1.78-6.23-2.68-9.72-2.68c-1.33,0-2.68,0.15-4.04,0.44c-2.75,0.58-5.23,1.73-7.44,3.43
		C8.04,15,6.72,17.27,6.72,19.77c0,1.97,0.96,3.24,2.88,3.83c0.69,0.21,1.31,0.32,1.84,0.32c1.57,0,2.91-0.63,4-1.88
		c0.85-0.99,1.32-1.92,1.4-2.8c0.03-0.19,0.15-0.28,0.36-0.28c0.35,0,0.49,0.21,0.44,0.64c-0.24,1.55-0.97,2.81-2.18,3.8
		c-1.21,0.99-2.62,1.48-4.22,1.48c-0.75,0-1.43-0.11-2.04-0.32c-2.4-0.83-3.81-2.44-4.24-4.84c-0.08-0.43-0.12-0.84-0.12-1.24
		c0-1.97,0.89-3.83,2.68-5.56c2.53-2.45,6.33-4.05,11.4-4.8c1.09-0.16,2.21-0.24,3.36-0.24c3.84,0,7.41,0.88,10.72,2.64l1-1.16
		c1.23-1.12,2.35-1.87,3.36-2.24c0.35-0.13,0.61-0.2,0.8-0.2c0.19,0,0.28,0.04,0.28,0.12c0,0.11-0.27,0.39-0.8,0.84
		c-0.61,0.51-0.96,0.81-1.04,0.92c-0.59,0.8-1.21,1.71-1.88,2.72c2.64,1.76,4.69,3.95,6.14,6.57c1.45,2.62,2.18,5.5,2.18,8.65
		C43.04,31.06,41.52,34.43,38.48,36.83z M15.64,36.24c-1.84-0.92-3.85-1.84-6.04-2.76c-0.59-0.24-1.24-0.37-1.96-0.37
		c-0.8,0-1.48,0.23-2.04,0.69s-0.84,1.1-0.84,1.91c0,0.87,0.32,1.56,0.96,2.09c0.64,0.53,1.4,0.82,2.28,0.87
		C10.75,38.81,13.29,38,15.64,36.24z M40.4,28.82c0.05-0.51,0.08-1.16,0.08-1.96c0-5.69-2.24-10.3-6.72-13.82l-7.28,11.82
		c-2.85,4.62-5.19,7.91-7,9.86c-0.37,0.4-0.88,0.88-1.52,1.44c3.84,1.68,7.52,2.52,11.04,2.52c2.91,0,5.46-0.93,7.66-2.78
		C38.86,34.03,40.11,31.68,40.4,28.82z"/>
	<path d="M55.8,30.79c-1.12,2.41-2.03,4.07-2.72,4.98c-1.36,1.75-3,2.63-4.92,2.63c-1.12,0-2.03-0.36-2.74-1.08
		c-0.71-0.72-1.07-1.63-1.1-2.75c-0.03-2.47,1-4.96,3.08-7.46c1.71-2.05,3.47-3.07,5.28-3.07c1.49,0,2.24,0.64,2.24,1.91
		c0,1.46-0.96,2.92-2.89,4.37c-0.54,0.4-1.33,0.79-2.39,1.17c-1.06,0.38-1.91,0.58-2.55,0.58c-0.35,0.88-0.52,1.83-0.52,2.86
		c0,1.72,0.63,2.58,1.89,2.58c2.44,0,4.65-2.25,6.63-6.77c0.16-0.37,0.38-0.55,0.64-0.55c0.13,0,0.2,0.08,0.2,0.24
		C55.92,30.49,55.88,30.61,55.8,30.79z M53.84,25.79c0-0.59-0.21-0.88-0.64-0.88c-0.75,0-1.88,0.92-3.4,2.76
		c-0.8,0.99-1.6,2.24-2.4,3.76c1.39,0,2.81-0.6,4.26-1.8C53.11,28.43,53.84,27.15,53.84,25.79z"/>
	<path d="M65.6,18.57c-2.32,5.14-5.05,9.15-8.2,12.04c-0.27,0.64-0.55,1.52-0.84,2.65c-0.19,0.7-0.28,1.36-0.28,2.01
		c0,1.5,0.51,2.25,1.52,2.25c0.93,0,1.89-0.61,2.88-1.82c0.16-0.19,0.76-1.2,1.8-3.03c0.93-1.64,1.49-2.47,1.68-2.47
		c0.11,0,0.16,0.08,0.16,0.24c0,0.08-0.04,0.21-0.12,0.4c-1.07,2.33-1.91,3.91-2.52,4.74c-1.39,1.88-2.95,2.81-4.68,2.81
		c-1.87,0-2.8-0.97-2.8-2.92c0-0.86,0.35-2.51,1.04-4.97c1.39-4.91,3.41-9.63,6.08-14.14c1.25-2.11,2.53-3.17,3.84-3.17
		c0.93,0,1.4,0.62,1.4,1.85C66.56,15.98,66.24,17.15,65.6,18.57z M65,17.95c0.43-1.01,0.64-1.87,0.64-2.56
		c0-0.37-0.09-0.56-0.28-0.56c-0.27,0-0.71,0.44-1.32,1.32c-1.79,2.56-3.89,6.93-6.32,13.12C60.6,26.37,63.03,22.59,65,17.95z"/>
	<path d="M70.84,31.44c-2.29,4.88-4.39,7.32-6.28,7.32c-1.81,0-2.72-0.97-2.72-2.92c0-0.8,0.19-1.56,0.56-2.28l3.48-6.64
		c0.51-0.93,0.76-1.41,0.76-1.44c0.27-0.32,0.73-0.48,1.4-0.48h2.04c-0.35,0.19-0.84,0.67-1.48,1.44c-2.03,3.36-3.41,5.95-4.16,7.76
		c-0.45,1.12-0.68,1.92-0.68,2.4c0,0.8,0.35,1.23,1.04,1.28c1.41,0.11,3.25-2.16,5.52-6.8c0.13-0.27,0.28-0.4,0.44-0.4
		c0.16,0,0.24,0.09,0.24,0.28C71,31.04,70.95,31.2,70.84,31.44z M76.56,18.11c-0.16,0.29-1.41,0.98-3.74,2.06
		c-2.33,1.08-3.58,1.58-3.74,1.5c-0.13-0.05-0.2-0.15-0.2-0.28c0-0.08,0.03-0.16,0.08-0.24l4.92-3.64c0.59-0.43,1.13-0.64,1.64-0.64
		c0.4,0,0.72,0.11,0.96,0.34C76.72,17.44,76.75,17.74,76.56,18.11z"/>
	<path d="M81.2,30.95c-1.01,2.33-2,4.06-2.96,5.17c-1.31,1.51-2.87,2.27-4.68,2.27c-2.64,0-3.96-1.33-3.96-3.98
		c0-2.23,0.77-4.43,2.32-6.6c1.68-2.39,3.6-3.58,5.76-3.58c2.05,0,2.97,0.92,2.76,2.76c-0.05,0.51-0.29,1.03-0.72,1.56
		c-0.43,0.53-0.88,0.8-1.36,0.8c-0.24,0-0.44-0.08-0.6-0.24c0.91-0.93,1.36-1.92,1.36-2.96c0-0.69-0.31-1.04-0.92-1.04
		c-1.4,0-2.84,1.33-4.34,3.97c-1.39,2.46-2.07,4.45-2.01,5.96c0.08,1.75,0.82,2.62,2.21,2.62c2.06,0,4.27-2.33,6.63-7
		c0.13-0.29,0.29-0.44,0.48-0.44c0.11,0,0.16,0.09,0.16,0.28C81.32,30.62,81.28,30.77,81.2,30.95z"/>
	<path d="M81.36,34.88c-0.16,0.48-0.24,0.89-0.24,1.24c0,0.8,0.35,1.23,1.04,1.28c1.44,0.11,3.29-2.16,5.56-6.8
		c0.13-0.27,0.28-0.4,0.44-0.4c0.13,0,0.2,0.09,0.2,0.28c0,0.16-0.04,0.32-0.12,0.48c-2.27,4.88-4.36,7.32-6.28,7.32
		c-1.76,0-2.64-0.96-2.64-2.88c0-0.72,0.16-1.49,0.48-2.32l2.56-6.56c0.05-0.13,0.08-0.28,0.08-0.44c0-0.35-0.16-0.75-0.48-1.2
		l2.2-0.04c0.75-0.03,1.12,0.16,1.12,0.56c0,0.13-0.09,0.41-0.28,0.84l-3.2,7.48C81.64,34.09,81.49,34.47,81.36,34.88z M88.68,20.79
		c-0.08,0.45-0.31,0.84-0.68,1.16c-0.37,0.32-0.79,0.48-1.24,0.48c-0.45,0-0.81-0.16-1.08-0.48c-0.27-0.32-0.37-0.71-0.32-1.16
		c0.05-0.45,0.27-0.84,0.66-1.16c0.39-0.32,0.81-0.48,1.26-0.48c0.45,0,0.82,0.16,1.1,0.48C88.66,19.95,88.76,20.34,88.68,20.79z"/>
	<path d="M102.32,30.92c-2.37,4.85-4.39,7.34-6.04,7.48c-0.77,0.05-1.37-0.2-1.78-0.77c-0.41-0.56-0.62-1.25-0.62-2.05
		c0-0.7,0.13-1.49,0.4-2.38c-2.08,3.47-3.95,5.2-5.6,5.2c-0.77,0-1.36-0.39-1.76-1.17c-0.32-0.62-0.48-1.35-0.48-2.21
		c0-2.55,1.12-5.17,3.36-7.88c0.72-0.88,1.65-1.63,2.8-2.23c1.15-0.6,2.27-0.9,3.36-0.9c1.31,0,2.35,0.43,3.12,1.28
		c0.19,0.21,0.28,0.43,0.28,0.64c0,0.45-0.24,0.63-0.72,0.52c-0.27-0.96-0.88-1.44-1.84-1.44c-1.12,0-2.44,0.79-3.96,2.38
		c-1.12,1.15-2.09,2.43-2.92,3.83c-1.12,1.88-1.68,3.45-1.68,4.71c0,0.91,0.33,1.37,1,1.37c1.63,0,3.72-2.46,6.28-7.39
		c0.53-1.02,0.93-1.67,1.2-1.97c0.43-0.46,0.93-0.66,1.52-0.6c0.13,0,0.4,0.04,0.8,0.12s0.69,0.09,0.88,0.04
		c-0.61,0.61-1.35,1.8-2.2,3.56c-0.8,1.65-1.31,2.96-1.52,3.92c-0.11,0.51-0.16,0.96-0.16,1.36c0,0.69,0.19,1.04,0.56,1.04
		c1.23,0.05,2.95-2.2,5.16-6.76c0.13-0.27,0.29-0.4,0.48-0.4c0.13,0,0.2,0.08,0.2,0.24C102.44,30.6,102.4,30.76,102.32,30.92z"/>
	<path d="M112.36,31.23c-0.51,1.09-1.09,2.21-1.76,3.36c-1.39,2.43-3.05,3.64-5,3.64c-0.43,0-0.88-0.07-1.36-0.2
		c-0.56,0.24-1.11,0.36-1.64,0.36c-1.04,0-1.89-0.27-2.56-0.8c-0.67-0.53-1-1.3-1-2.31c0-0.56,0.12-1.08,0.36-1.56
		c0.29-0.61,0.69-0.93,1.2-0.96c0.96-1.97,1.91-3.94,2.84-5.91c1.52-2.79,2.83-4.27,3.92-4.43c0.37-0.05,0.76-0.03,1.16,0.08
		c0.53,0.13,0.8,0.36,0.8,0.68c0,0.16-0.09,0.24-0.28,0.24c-0.08,0-0.32-0.08-0.72-0.24c-0.32-0.08-0.63-0.05-0.92,0.08
		c-0.91,0.43-1.36,1.31-1.36,2.64c0,0.72,0.17,1.53,0.52,2.44c0.32,0.75,0.64,1.51,0.96,2.28c0.35,0.88,0.51,1.69,0.48,2.44
		c-0.08,1.73-1.03,3.21-2.84,4.44l0.28,0.04c1.12,0.16,2.32-0.45,3.6-1.84c0.43-0.45,1.43-2.2,3-5.24c0.08-0.13,0.17-0.2,0.28-0.2
		c0.19,0,0.28,0.09,0.28,0.28C112.6,30.63,112.52,30.86,112.36,31.23z M103.12,37.56c-0.99-0.61-1.52-1.59-1.6-2.96
		c-0.48,0.47-0.72,1-0.72,1.58c0,1.03,0.51,1.54,1.52,1.54C102.59,37.71,102.85,37.66,103.12,37.56z M105.6,33.07
		c0.03-0.83-0.05-1.96-0.24-3.4c-0.24-1.57-0.36-2.71-0.36-3.4c0-0.29,0-0.56,0-0.8c-1.51,3.12-2.74,5.59-3.68,7.4
		c0.61,0.03,0.89,0.45,0.84,1.28c-0.08,1.47,0.48,2.49,1.68,3.08C104.91,36.41,105.49,35.02,105.6,33.07z"/>
	<path d="M142.16,13.39c-0.88,0.85-2.72,3.95-5.52,9.28c-2.45,4.72-4.13,8.15-5.04,10.28c-0.51,1.2-0.76,2.2-0.76,3
		c0,0.85,0.33,1.28,1,1.28c1.28,0,3-2.21,5.16-6.64c0.13-0.29,0.27-0.44,0.4-0.44s0.2,0.11,0.2,0.32c0,0.13-0.04,0.29-0.12,0.48
		c-2.13,4.88-4.25,7.32-6.36,7.32c-0.77,0-1.37-0.35-1.8-1.04c-0.35-0.61-0.52-1.32-0.52-2.12c0-0.45,0.05-0.93,0.16-1.44
		c-0.83,1.41-1.51,2.4-2.04,2.97c-0.99,1.09-1.97,1.63-2.96,1.63c-0.27,0-0.55-0.03-0.84-0.08c-1.33-0.38-2-1.39-2-3.06
		c0-1.26,0.35-2.68,1.04-4.26c0.64-1.39,1.41-2.64,2.32-3.74c1.68-2.04,3.64-3.06,5.88-3.06c0.96,0,1.87,0.24,2.72,0.72
		c2.05-3.87,3.6-7.03,4.64-9.48c0.32-0.77,0.67-1.33,1.06-1.66c0.39-0.33,0.94-0.47,1.66-0.42
		C141.69,13.34,142.26,13.39,142.16,13.39z M132.76,25.44c-0.35-0.32-0.75-0.48-1.2-0.48c-1.23,0-2.65,0.89-4.28,2.66
		c-1.23,1.34-2.23,2.75-3,4.21c-0.77,1.46-1.16,2.71-1.16,3.72c0,1.07,0.36,1.61,1.08,1.61c1.12,0,2.75-1.72,4.88-5.15
		C129.74,30.95,130.97,28.77,132.76,25.44z"/>
	<path d="M151.6,30.92c-2.37,4.85-4.39,7.34-6.04,7.48c-0.77,0.05-1.37-0.2-1.78-0.77c-0.41-0.56-0.62-1.25-0.62-2.05
		c0-0.7,0.13-1.49,0.4-2.38c-2.08,3.47-3.95,5.2-5.6,5.2c-0.77,0-1.36-0.39-1.76-1.17c-0.32-0.62-0.48-1.35-0.48-2.21
		c0-2.55,1.12-5.17,3.36-7.88c0.72-0.88,1.65-1.63,2.8-2.23c1.15-0.6,2.27-0.9,3.36-0.9c1.31,0,2.35,0.43,3.12,1.28
		c0.19,0.21,0.28,0.43,0.28,0.64c0,0.45-0.24,0.63-0.72,0.52c-0.27-0.96-0.88-1.44-1.84-1.44c-1.12,0-2.44,0.79-3.96,2.38
		c-1.12,1.15-2.09,2.43-2.92,3.83c-1.12,1.88-1.68,3.45-1.68,4.71c0,0.91,0.33,1.37,1,1.37c1.63,0,3.72-2.46,6.28-7.39
		c0.53-1.02,0.93-1.67,1.2-1.97c0.43-0.46,0.93-0.66,1.52-0.6c0.13,0,0.4,0.04,0.8,0.12c0.4,0.08,0.69,0.09,0.88,0.04
		c-0.61,0.61-1.35,1.8-2.2,3.56c-0.8,1.65-1.31,2.96-1.52,3.92c-0.11,0.51-0.16,0.96-0.16,1.36c0,0.69,0.19,1.04,0.56,1.04
		c1.23,0.05,2.95-2.2,5.16-6.76c0.13-0.27,0.29-0.4,0.48-0.4c0.13,0,0.2,0.08,0.2,0.24C151.72,30.6,151.68,30.76,151.6,30.92z"/>
	<path d="M195.6,36.83c-2.53,2-5.48,3-8.84,3c-0.56,0-1.16-0.04-1.8-0.12c-4.11-0.51-7.72-1.47-10.84-2.88c-2.48,2-5.21,3-8.2,3
		c-0.53,0-1.13-0.04-1.8-0.12c-1.28-0.16-2.36-0.55-3.24-1.16c-1.09-0.72-1.64-1.67-1.64-2.84c0-1.23,0.56-2.21,1.68-2.96
		c0.96-0.64,2.08-0.96,3.36-0.96c1.39,0,3.04,0.41,4.96,1.24c0.69,0.32,2.21,1.11,4.56,2.36c2.05-1.97,4.55-5.74,7.48-11.3
		c3.15-5.96,5.72-10.06,7.72-12.3c-2.99-1.78-6.23-2.68-9.72-2.68c-1.33,0-2.68,0.15-4.04,0.44c-2.75,0.58-5.23,1.73-7.44,3.43
		c-2.64,2.02-3.96,4.28-3.96,6.78c0,1.97,0.96,3.24,2.88,3.83c0.69,0.21,1.31,0.32,1.84,0.32c1.57,0,2.91-0.63,4-1.88
		c0.85-0.99,1.32-1.92,1.4-2.8c0.03-0.19,0.15-0.28,0.36-0.28c0.35,0,0.49,0.21,0.44,0.64c-0.24,1.55-0.97,2.81-2.18,3.8
		c-1.21,0.99-2.62,1.48-4.22,1.48c-0.75,0-1.43-0.11-2.04-0.32c-2.4-0.83-3.81-2.44-4.24-4.84c-0.08-0.43-0.12-0.84-0.12-1.24
		c0-1.97,0.89-3.83,2.68-5.56c2.53-2.45,6.33-4.05,11.4-4.8c1.09-0.16,2.21-0.24,3.36-0.24c3.84,0,7.41,0.88,10.72,2.64l1-1.16
		c1.23-1.12,2.35-1.87,3.36-2.24c0.35-0.13,0.61-0.2,0.8-0.2c0.19,0,0.28,0.04,0.28,0.12c0,0.11-0.27,0.39-0.8,0.84
		c-0.61,0.51-0.96,0.81-1.04,0.92c-0.59,0.8-1.21,1.71-1.88,2.72c2.64,1.76,4.69,3.95,6.14,6.57c1.45,2.62,2.18,5.5,2.18,8.65
		C200.16,31.06,198.64,34.43,195.6,36.83z M172.76,36.24c-1.84-0.92-3.85-1.84-6.04-2.76c-0.59-0.24-1.24-0.37-1.96-0.37
		c-0.8,0-1.48,0.23-2.04,0.69c-0.56,0.46-0.84,1.1-0.84,1.91c0,0.87,0.32,1.56,0.96,2.09c0.64,0.53,1.4,0.82,2.28,0.87
		C167.86,38.81,170.41,38,172.76,36.24z M197.52,28.82c0.05-0.51,0.08-1.16,0.08-1.96c0-5.69-2.24-10.3-6.72-13.82l-7.28,11.82
		c-2.85,4.62-5.19,7.91-7,9.86c-0.37,0.4-0.88,0.88-1.52,1.44c3.84,1.68,7.52,2.52,11.04,2.52c2.91,0,5.46-0.93,7.66-2.78
		C195.98,34.03,197.22,31.68,197.52,28.82z"/>
	<path d="M217.04,30.92c-2.37,4.85-4.39,7.34-6.04,7.48c-0.77,0.05-1.37-0.2-1.78-0.77c-0.41-0.56-0.62-1.25-0.62-2.05
		c0-0.7,0.13-1.49,0.4-2.38c-2.08,3.47-3.95,5.2-5.6,5.2c-0.77,0-1.36-0.39-1.76-1.17c-0.32-0.62-0.48-1.35-0.48-2.21
		c0-2.55,1.12-5.17,3.36-7.88c0.72-0.88,1.65-1.63,2.8-2.23c1.15-0.6,2.27-0.9,3.36-0.9c1.31,0,2.35,0.43,3.12,1.28
		c0.19,0.21,0.28,0.43,0.28,0.64c0,0.45-0.24,0.63-0.72,0.52c-0.27-0.96-0.88-1.44-1.84-1.44c-1.12,0-2.44,0.79-3.96,2.38
		c-1.12,1.15-2.09,2.43-2.92,3.83c-1.12,1.88-1.68,3.45-1.68,4.71c0,0.91,0.33,1.37,1,1.37c1.63,0,3.72-2.46,6.28-7.39
		c0.53-1.02,0.93-1.67,1.2-1.97c0.43-0.46,0.93-0.66,1.52-0.6c0.13,0,0.4,0.04,0.8,0.12c0.4,0.08,0.69,0.09,0.88,0.04
		c-0.61,0.61-1.35,1.8-2.2,3.56c-0.8,1.65-1.31,2.96-1.52,3.92c-0.11,0.51-0.16,0.96-0.16,1.36c0,0.69,0.19,1.04,0.56,1.04
		c1.23,0.05,2.95-2.2,5.16-6.76c0.13-0.27,0.29-0.4,0.48-0.4c0.13,0,0.2,0.08,0.2,0.24C217.16,30.6,217.12,30.76,217.04,30.92z"/>
	<path d="M230.32,30.95c-1.15,2.28-1.99,3.82-2.52,4.62c-1.31,1.88-2.63,2.83-3.96,2.83c-1.65,0-2.48-0.86-2.48-2.59
		c0-1.43,0.85-3.52,2.56-6.26c0.27-0.42,0.4-0.78,0.4-1.08c0-0.43-0.25-0.56-0.76-0.4c-0.67,0.21-1.49,0.79-2.48,1.72
		c-1.95,1.81-3.8,4.45-5.56,7.92c-0.21,0.4-0.65,0.61-1.32,0.64c-0.85,0.03-1.37,0.09-1.56,0.2c1.49-3.25,3.33-6.99,5.52-11.2
		c0.45-0.85,0.81-1.44,1.08-1.76c0.51-0.56,1.09-0.81,1.76-0.76c0.13,0,0.4,0.04,0.8,0.12c0.4,0.08,0.69,0.09,0.88,0.04
		c-1.04,0.56-2.65,3.07-4.84,7.52c2.13-2.69,4.41-4.72,6.84-6.08c1.57-0.88,2.73-1.32,3.48-1.32c0.16,0,0.29,0.01,0.4,0.04
		c-1.39,2.55-2.31,4.28-2.76,5.18c-1.17,2.34-1.85,4.04-2.04,5.1c-0.05,0.32-0.08,0.64-0.08,0.96c0,0.69,0.24,1.04,0.72,1.04
		c1.41,0,3.24-2.29,5.48-6.88c0.13-0.26,0.27-0.4,0.4-0.4c0.11,0,0.16,0.09,0.16,0.28C230.44,30.62,230.4,30.79,230.32,30.95z"/>
	<path d="M230.44,34.88c-0.16,0.48-0.24,0.89-0.24,1.24c0,0.8,0.35,1.23,1.04,1.28c1.44,0.11,3.29-2.16,5.56-6.8
		c0.13-0.27,0.28-0.4,0.44-0.4c0.13,0,0.2,0.09,0.2,0.28c0,0.16-0.04,0.32-0.12,0.48c-2.27,4.88-4.36,7.32-6.28,7.32
		c-1.76,0-2.64-0.96-2.64-2.88c0-0.72,0.16-1.49,0.48-2.32l2.56-6.56c0.05-0.13,0.08-0.28,0.08-0.44c0-0.35-0.16-0.75-0.48-1.2
		l2.2-0.04c0.75-0.03,1.12,0.16,1.12,0.56c0,0.13-0.09,0.41-0.28,0.84l-3.2,7.48C230.72,34.09,230.57,34.47,230.44,34.88z
		 M237.76,20.79c-0.08,0.45-0.31,0.84-0.68,1.16c-0.37,0.32-0.79,0.48-1.24,0.48c-0.45,0-0.81-0.16-1.08-0.48
		c-0.27-0.32-0.37-0.71-0.32-1.16c0.05-0.45,0.27-0.84,0.66-1.16c0.39-0.32,0.81-0.48,1.26-0.48s0.82,0.16,1.1,0.48
		C237.74,19.95,237.84,20.34,237.76,20.79z"/>
</g>
</svg>
